<svg width="21" height="26" viewBox="0 0 21 26" fill="none" xmlns="http://www.w3.org/2000/svg">
<g id="spring_tree_plant_garden_nature_wood_forest_icon_133298 1" clip-path="url(#clip0_1_64)">
<path id="Vector" d="M17.7482 7.06557C17.8778 6.34905 17.8388 5.60237 17.6359 4.91176C17.4329 4.22114 17.0743 3.61477 16.6013 3.16267C16.1283 2.71057 15.5604 2.43119 14.963 2.35679C14.3657 2.2824 13.7633 2.41602 13.2254 2.74223C13.0248 1.94803 12.6212 1.25326 12.0739 0.75976C11.5266 0.266264 10.8644 0 10.1842 0C9.50405 0 8.84178 0.266264 8.29448 0.75976C7.74718 1.25326 7.34363 1.94803 7.14299 2.74223C6.60513 2.41602 6.00273 2.2824 5.40537 2.35679C4.80801 2.43119 4.24005 2.71057 3.76709 3.16267C3.29413 3.61477 2.93547 4.22114 2.73253 4.91176C2.52958 5.60237 2.49063 6.34905 2.62018 7.06557C1.83753 7.23736 1.13585 7.76094 0.653248 8.53325C0.170643 9.30555 -0.0579285 10.2707 0.0125239 11.2386C0.0829764 12.2065 0.447349 13.1071 1.03392 13.7632C1.6205 14.4193 2.38678 14.7833 3.18195 14.7836H3.24561C3.41443 15.7946 3.90498 16.6822 4.60932 17.2511C5.31366 17.8201 6.1741 18.0238 7.00136 17.8175C7.82862 17.6112 8.55493 17.0117 9.02051 16.151C9.48609 15.2902 9.6528 14.2387 9.48397 13.2277H10.2479C10.0889 14.2409 10.2659 15.2897 10.7397 16.1434C11.2136 16.9972 11.9456 17.5859 12.7746 17.7801C13.6037 17.9743 14.4619 17.758 15.1605 17.179C15.8591 16.5999 16.3408 15.7053 16.4997 14.6922C16.914 14.8069 17.3429 14.8192 17.7611 14.7282C18.1793 14.6372 18.5784 14.4448 18.9348 14.1624C19.2912 13.88 19.5978 13.5133 19.8364 13.0838C20.075 12.6544 20.2409 12.1709 20.3242 11.6618C20.4076 11.1528 20.4067 10.6286 20.3216 10.12C20.2366 9.61138 20.0691 9.12873 19.829 8.70047C19.589 8.27222 19.2812 7.90702 18.9238 7.6264C18.5664 7.34579 18.1667 7.15543 17.7482 7.06655V7.06557Z" fill="#2A9D8F"/>
<path id="Vector_2" d="M8.10938 26H12.2771L11.6817 10.6926H8.70476L8.10938 26Z" fill="#2A9D8F"/>
</g>
<defs>
<clipPath id="clip0_1_64">
<rect width="20.3861" height="26" fill="white"/>
</clipPath>
</defs>
</svg>
