<svg width="43" height="55" viewBox="0 0 43 55" fill="none" xmlns="http://www.w3.org/2000/svg">
<g id="spring_tree_plant_garden_nature_wood_forest_icon_133298 1" clip-path="url(#clip0_1_13)">
<path id="Vector" d="M37.1236 14.7777C37.3945 13.2791 37.3131 11.7174 36.8886 10.2729C36.4641 8.82852 35.7139 7.56029 34.7246 6.61473C33.7353 5.66916 32.5473 5.08484 31.2978 4.92924C30.0483 4.77364 28.7883 5.05312 27.6633 5.73539C27.2436 4.07431 26.3995 2.62119 25.2548 1.58904C24.11 0.556891 22.7247 0 21.3021 0C19.8794 0 18.4942 0.556891 17.3494 1.58904C16.2046 2.62119 15.3605 4.07431 14.9408 5.73539C13.8158 5.05312 12.5558 4.77364 11.3063 4.92924C10.0568 5.08484 8.86882 5.66916 7.87955 6.61473C6.89027 7.56029 6.14006 8.82852 5.71557 10.2729C5.29107 11.7174 5.2096 13.2791 5.48057 14.7777C3.84353 15.137 2.37584 16.232 1.36638 17.8473C0.35693 19.4626 -0.121168 21.4811 0.026196 23.5055C0.17356 25.5299 0.935711 27.4136 2.16263 28.7858C3.38956 30.158 4.99238 30.9194 6.65561 30.9199H6.78876C7.1419 33.0344 8.16795 34.8908 9.64121 36.0808C11.1145 37.2708 12.9142 37.6969 14.6446 37.2654C16.3749 36.8339 17.8942 35.5801 18.868 33.7798C19.8418 31.9795 20.1906 29.7803 19.8374 27.6658H21.4352C21.1028 29.7849 21.4729 31.9784 22.4641 33.764C23.4553 35.5496 24.9863 36.7809 26.7204 37.1871C28.4545 37.5932 30.2497 37.141 31.7109 35.9298C33.1721 34.7187 34.1798 32.8478 34.5122 30.7287C35.3787 30.9687 36.2758 30.9943 37.1505 30.804C38.0253 30.6137 38.86 30.2114 39.6055 29.6207C40.351 29.0301 40.9922 28.263 41.4914 27.3648C41.9905 26.4666 42.3374 25.4554 42.5117 24.3908C42.6861 23.3262 42.6842 22.2297 42.5063 21.1659C42.3284 20.1022 41.9781 19.0928 41.4759 18.1971C40.9738 17.3014 40.33 16.5376 39.5825 15.9506C38.835 15.3637 37.9989 14.9656 37.1236 14.7797V14.7777Z" fill="white"/>
<path id="Vector_2" d="M16.9622 54.3791H25.6789L24.4337 22.3638H18.2075L16.9622 54.3791Z" fill="white"/>
</g>
<defs>
<clipPath id="clip0_1_13">
<rect width="42.6411" height="54.3791" fill="white"/>
</clipPath>
</defs>
</svg>
